<?xml version="1.0" standalone="no"?>
<!DOCTYPE svg PUBLIC "-//W3C//DTD SVG 20010904//EN"
 "http://www.w3.org/TR/2001/REC-SVG-20010904/DTD/svg10.dtd">
<svg version="1.0" xmlns="http://www.w3.org/2000/svg"
 width="180.000000pt" height="180.000000pt" viewBox="0 0 180.000000 180.000000"
 preserveAspectRatio="xMidYMid meet">
<metadata>
Created by potrace 1.11, written by Peter Selinger 2001-2013
</metadata>
<g transform="translate(0.000000,180.000000) scale(0.100000,-0.100000)"
fill="#000000" stroke="none">
<path d="M985 1665 c-5 -2 -29 -9 -53 -15 -23 -6 -40 -15 -37 -20 3 -6 0 -7
-8 -4 -16 6 -120 -83 -112 -96 3 -5 1 -10 -5 -12 -13 -4 -49 -107 -57 -161 -3
-23 -6 -103 -6 -177 -1 -74 -4 -137 -8 -140 -4 -3 -48 -5 -98 -4 -100 1 -100
2 -93 -77 l4 -37 97 2 97 2 0 -256 -1 -255 67 -3 67 -3 0 252 c1 143 5 255 10
258 5 3 79 6 165 6 l156 -1 0 56 0 57 -157 -1 c-87 -1 -162 0 -168 1 -14 4 -2
319 14 356 6 16 9 32 6 37 -3 5 -2 10 2 12 5 1 21 20 37 42 30 40 76 65 131
70 18 2 38 6 43 10 6 3 13 2 17 -4 3 -5 21 -10 38 -10 18 -1 48 -9 67 -18 l35
-17 17 50 c10 27 18 52 18 56 0 3 -29 16 -65 28 -59 19 -186 28 -220 16z m-10
-85 c-3 -5 -12 -10 -18 -10 -7 0 -6 4 3 10 19 12 23 12 15 0z m-169 -295 c-1
-8 -5 -17 -8 -21 -5 -4 -4 16 1 34 3 9 9 -1 7 -13z"/>
<path d="M1071 1439 c-67 -14 -106 -59 -115 -134 -12 -96 66 -172 165 -163 90
9 147 79 136 168 -10 90 -94 149 -186 129z"/>
<path d="M1039 783 c0 -4 -2 -75 -3 -158 -3 -192 -14 -246 -63 -313 -52 -71
-167 -92 -281 -53 -37 13 -55 15 -58 7 -33 -94 -34 -95 -16 -105 70 -38 230
-52 307 -29 123 38 195 119 231 257 11 43 16 114 17 229 l2 167 -67 3 c-38 2
-68 -1 -69 -5z"/>
</g>
</svg>
