<?xml version="1.0" encoding="utf-8"?>
<!-- Generator: Adobe Illustrator 16.0.0, SVG Export Plug-In . SVG Version: 6.00 Build 0)  -->
<!DOCTYPE svg PUBLIC "-//W3C//DTD SVG 1.1//EN" "http://www.w3.org/Graphics/SVG/1.1/DTD/svg11.dtd">
<svg version="1.1" xmlns="http://www.w3.org/2000/svg" xmlns:xlink="http://www.w3.org/1999/xlink" x="0px" y="0px"
	 width="447.259px" height="160.971px" viewBox="0 0 447.259 160.971" enable-background="new 0 0 447.259 160.971"
	 xml:space="preserve">
<g id="Layer_2">
	<text transform="matrix(1 0 0 1 133.1289 62.5654)"><tspan x="0" y="0" fill="#333333" font-family="'SourceSansPro-Light'" font-size="72" letter-spacing="2">fundaciόn</tspan><tspan x="0" y="55" fill="#333333" font-family="'SourceSansPro-Light'" font-size="36">por la</tspan><tspan x="83.663" y="72" fill="#333333" font-family="'SourceSansPro-Regular'" font-size="72"> justicia</tspan></text>
</g>
<g id="Layer_4">
	<rect x="100.691" y="1.776" fill="#C0392B" width="5" height="35"/>
	<rect x="100.691" y="41.526" fill="#159780" width="5" height="35"/>
	<rect x="100.691" y="81.526" fill="#2980B4" width="5" height="35"/>
	<rect x="100.691" y="121.526" fill="#F0C413" width="5" height="35"/>
</g>
<g id="Layer_3_copy">
	<g>
		<path fill="#333333" d="M64.599,54.669c4.198,0,7.778-1.388,10.743-4.175c2.963-2.783,4.444-6.327,4.444-10.634
			c0-4.807-1.48-8.544-4.444-11.205c-2.964-2.656-6.545-3.986-10.743-3.986c-3.95,0-7.406,1.331-10.37,3.986
			c-2.962,2.661-4.443,6.398-4.443,11.205c0,4.307,1.481,7.851,4.443,10.634C57.193,53.281,60.649,54.669,64.599,54.669z"/>
		<path opacity="0.8" fill="#333333" d="M37.984,47.296v-1.619c0-10.592,1.842-18.682,5.542-24.286
			c3.686-5.588,9.334-8.375,16.931-8.375c2.786,0,5.648,0.284,8.539,0.884c2.893,0.615,5.843,1.708,8.84,3.311l3.596-10.802
			c-6.997-3.191-13.995-4.795-20.975-4.795c-11.387,0-20.182,3.611-26.37,10.788c-6.021,6.998-9.112,17.412-9.274,31.22
			c-0.016,0-0.032,0-0.047,0v21.475L4.99,65.068v11.415h19.776v51.045h13.275l-0.09-51.045h33.26V65.097h-33.26V47.296
			C37.962,47.296,37.973,47.296,37.984,47.296z"/>
		<path fill="#333333" d="M52.483,136.854c-3.686,5.589-9.335,8.375-16.931,8.375c-2.786,0-5.648-0.284-8.539-0.884
			c-2.894-0.614-5.845-1.706-8.841-3.311l-3.596,10.802c6.996,3.191,13.995,4.796,20.976,4.796c11.387,0,20.182-3.61,26.37-10.789
			c6.188-7.189,9.289-17.979,9.289-32.362L71.2,89.968c-4.125,0-9.16,0-13.182,0l0.008,22.602
			C58.025,123.163,56.183,131.251,52.483,136.854z"/>
	</g>
</g>
</svg>
